<?xml version="1.0" encoding="utf-8" ?>
<svg baseProfile="full" height="192.0mm" version="1.1" width="192.0mm" xmlns="http://www.w3.org/2000/svg" xmlns:ev="http://www.w3.org/2001/xml-events" xmlns:xlink="http://www.w3.org/1999/xlink"><defs /><circle cx="96.0mm" cy="96.0mm" fill="none" r="96.0mm" stroke="black" stroke-width="1" /><circle cx="89.8815503548mm" cy="152.8112426mm" fill="none" r="3.69879531583mm" stroke="black" stroke-width="1" /><circle cx="160.703080973mm" cy="62.1895809727mm" fill="none" r="8.51557187483mm" stroke="black" stroke-width="1" /><circle cx="32.8746948787mm" cy="72.9938679837mm" fill="none" r="9.34608327373mm" stroke="black" stroke-width="1" /><circle cx="60.3126174178mm" cy="76.541975071mm" fill="none" r="12.6317955102mm" stroke="black" stroke-width="1" /><circle cx="163.698742122mm" cy="91.7314733839mm" fill="none" r="13.590696401mm" stroke="black" stroke-width="1" /><circle cx="95.2616657778mm" cy="57.5616112102mm" fill="none" r="21.149443364mm" stroke="black" stroke-width="1" /><circle cx="30.6492774171mm" cy="124.227169806mm" fill="none" r="3.1633155812mm" stroke="black" stroke-width="1" /><circle cx="113.182355748mm" cy="165.419747711mm" fill="none" r="12.0290217269mm" stroke="black" stroke-width="1" /><circle cx="121.210799374mm" cy="117.320824223mm" fill="none" r="19.6659716627mm" stroke="black" stroke-width="1" /><circle cx="57.6735561152mm" cy="151.91038028mm" fill="none" r="6.65264440357mm" stroke="black" stroke-width="1" /><circle cx="159.833434292mm" cy="131.29767909mm" fill="none" r="8.21375569578mm" stroke="black" stroke-width="1" /><circle cx="73.8543786929mm" cy="106.917846618mm" fill="none" r="17.3971618013mm" stroke="black" stroke-width="1" /><circle cx="137.955292226mm" cy="49.0948950043mm" fill="none" r="9.70986220291mm" stroke="black" stroke-width="1" /><circle cx="102.017455198mm" cy="30.6260355265mm" fill="none" r="3.10915154921mm" stroke="black" stroke-width="1" /><circle cx="55.0149155143mm" cy="24.1454376294mm" fill="none" r="4.61729329663mm" stroke="black" stroke-width="1" /><circle cx="65.0562598745mm" cy="135.861109432mm" fill="none" r="7.92955518477mm" stroke="black" stroke-width="1" /><circle cx="28.2338194309mm" cy="105.363449696mm" fill="none" r="4.92436859419mm" stroke="black" stroke-width="1" /><circle cx="171.980081063mm" cy="113.082928454mm" fill="none" r="5.86936964416mm" stroke="black" stroke-width="1" /><circle cx="147.38669979mm" cy="161.273285668mm" fill="none" r="3.61650786358mm" stroke="black" stroke-width="1" /><circle cx="147.012583843mm" cy="66.2269639471mm" fill="none" r="3.67337505049mm" stroke="black" stroke-width="1" /><circle cx="120.989648499mm" cy="75.0813143458mm" fill="none" r="3.503183388mm" stroke="black" stroke-width="1" /><circle cx="39.1808634949mm" cy="53.7461616177mm" fill="none" r="6.57749972479mm" stroke="black" stroke-width="1" /><circle cx="120.703274995mm" cy="30.7511975284mm" fill="none" r="8.5013047641mm" stroke="black" stroke-width="1" /><circle cx="140.967782777mm" cy="78.993513007mm" fill="none" r="2.65289487791mm" stroke="black" stroke-width="1" /><circle cx="79.2761775561mm" cy="173.545805755mm" fill="none" r="2.09139583053mm" stroke="black" stroke-width="1" /><circle cx="63.9187331594mm" cy="49.0457136669mm" fill="none" r="7.94123150419mm" stroke="black" stroke-width="1" /><circle cx="42.9013103708mm" cy="137.516374891mm" fill="none" r="8.67905203693mm" stroke="black" stroke-width="1" /><circle cx="75.8961448199mm" cy="159.896555682mm" fill="none" r="2.25197825432mm" stroke="black" stroke-width="1" /><circle cx="139.826292415mm" cy="26.317367346mm" fill="none" r="4.77934000666mm" stroke="black" stroke-width="1" /><circle cx="133.282703283mm" cy="150.744740304mm" fill="none" r="7.47068565965mm" stroke="black" stroke-width="1" /><circle cx="97.8131093691mm" cy="136.549659364mm" fill="none" r="3.3446909181mm" stroke="black" stroke-width="1" /><circle cx="86.7967288081mm" cy="129.016379775mm" fill="none" r="1.51457926688mm" stroke="black" stroke-width="1" /><circle cx="156.249593608mm" cy="46.7195086158mm" fill="none" r="5.17114206055mm" stroke="black" stroke-width="1" /><circle cx="70.99798681mm" cy="29.2024009023mm" fill="none" r="6.57336091296mm" stroke="black" stroke-width="1" /><circle cx="19.0231182658mm" cy="113.948429402mm" fill="none" r="2.30330534858mm" stroke="black" stroke-width="1" /><circle cx="133.941638562mm" cy="89.7564718766mm" fill="none" r="3.87819597067mm" stroke="black" stroke-width="1" /><circle cx="95.6667863228mm" cy="175.18068272mm" fill="none" r="4.11203724545mm" stroke="black" stroke-width="1" /><circle cx="151.920014832mm" cy="114.682927194mm" fill="none" r="5.26346880891mm" stroke="black" stroke-width="1" /><circle cx="85.8862883893mm" cy="177.151060731mm" fill="none" r="3.07741537218mm" stroke="black" stroke-width="1" /><circle cx="44.8349335421mm" cy="35.7658970833mm" fill="none" r="3.82406277874mm" stroke="black" stroke-width="1" /><circle cx="55.6543096388mm" cy="168.427502937mm" fill="none" r="1.38076648384mm" stroke="black" stroke-width="1" /><circle cx="49.3738629754mm" cy="162.556145409mm" fill="none" r="1.93442077285mm" stroke="black" stroke-width="1" /><circle cx="180.637946648mm" cy="85.2933907399mm" fill="none" r="1.14773234259mm" stroke="black" stroke-width="1" /><circle cx="26.2074119527mm" cy="134.733526688mm" fill="none" r="2.83587936059mm" stroke="black" stroke-width="1" /><circle cx="39.4415973402mm" cy="90.9431596931mm" fill="none" r="6.49353673767mm" stroke="black" stroke-width="1" /><circle cx="23.0204696316mm" cy="88.427462438mm" fill="none" r="5.62750720062mm" stroke="black" stroke-width="1" /><circle cx="118.85673011mm" cy="144.778008159mm" fill="none" r="3.36998697983mm" stroke="black" stroke-width="1" /><circle cx="108.622572915mm" cy="34.6474306167mm" fill="none" r="1.99313666379mm" stroke="black" stroke-width="1" /><circle cx="82.7685307951mm" cy="35.0570140261mm" fill="none" r="1.33082734302mm" stroke="black" stroke-width="1" /><circle cx="44.0503953375mm" cy="113.853544659mm" fill="none" r="9.89659209541mm" stroke="black" stroke-width="1" /><circle cx="101.676981397mm" cy="19.2498080177mm" fill="none" r="3.46169759929mm" stroke="black" stroke-width="1" /><circle cx="69.0421485284mm" cy="158.666730591mm" fill="none" r="2.41831190054mm" stroke="black" stroke-width="1" /><circle cx="117.492639353mm" cy="85.7974848447mm" fill="none" r="4.30979889914mm" stroke="black" stroke-width="1" /><circle cx="36.8513589843mm" cy="102.927355448mm" fill="none" r="1.02149649015mm" stroke="black" stroke-width="1" /><circle cx="133.147102342mm" cy="74.0391102744mm" fill="none" r="2.96797900347mm" stroke="black" stroke-width="1" /><circle cx="134.265826892mm" cy="164.912361084mm" fill="none" r="3.55805156359mm" stroke="black" stroke-width="1" /><circle cx="172.581439574mm" cy="124.485579502mm" fill="none" r="3.53562420878mm" stroke="black" stroke-width="1" /><circle cx="23.4364067212mm" cy="62.3861469794mm" fill="none" r="2.41518235667mm" stroke="black" stroke-width="1" /><circle cx="25.3122885742mm" cy="116.349904417mm" fill="none" r="1.78893537917mm" stroke="black" stroke-width="1" /><circle cx="84.5649761756mm" cy="160.018271027mm" fill="none" r="2.04602509374mm" stroke="black" stroke-width="1" /><circle cx="87.5212174219mm" cy="23.390641009mm" fill="none" r="3.23076798636mm" stroke="black" stroke-width="1" /><circle cx="132.298186687mm" cy="62.3310796608mm" fill="none" r="2.36953857204mm" stroke="black" stroke-width="1" /><circle cx="106.751357634mm" cy="90.529099727mm" fill="none" r="4.77169537433mm" stroke="black" stroke-width="1" /><circle cx="144.059751485mm" cy="105.585123151mm" fill="none" r="1.87818809803mm" stroke="black" stroke-width="1" /><circle cx="14.7637125286mm" cy="100.176642945mm" fill="none" r="2.91707172819mm" stroke="black" stroke-width="1" /><circle cx="144.558141035mm" cy="92.4404064871mm" fill="none" r="2.97389309456mm" stroke="black" stroke-width="1" /><circle cx="105.046844616mm" cy="144.88198158mm" fill="none" r="3.4038741255mm" stroke="black" stroke-width="1" /><circle cx="85.1544715192mm" cy="82.7001351914mm" fill="none" r="3.38874754856mm" stroke="black" stroke-width="1" /><circle cx="87.2982612673mm" cy="140.145123142mm" fill="none" r="4.10603394943mm" stroke="black" stroke-width="1" /><circle cx="68.9272611553mm" cy="164.565053425mm" fill="none" r="1.11340968793mm" stroke="black" stroke-width="1" /><circle cx="42.0885603491mm" cy="161.529653681mm" fill="none" r="1.66496833696mm" stroke="black" stroke-width="1" /><circle cx="74.195495628mm" cy="16.7036102059mm" fill="none" r="2.5675738478mm" stroke="black" stroke-width="1" /><circle cx="60.9771021142mm" cy="35.0331722732mm" fill="none" r="1.72115968474mm" stroke="black" stroke-width="1" /><circle cx="83.2255840671mm" cy="12.9187966343mm" fill="none" r="3.92881145923mm" stroke="black" stroke-width="1" /><circle cx="174.741114566mm" cy="66.9100655905mm" fill="none" r="3.10929800919mm" stroke="black" stroke-width="1" /><circle cx="104.481990964mm" cy="99.0887227654mm" fill="none" r="1.2442795762mm" stroke="black" stroke-width="1" /><circle cx="75.6215080758mm" cy="147.667177576mm" fill="none" r="1.65525056374mm" stroke="black" stroke-width="1" /><circle cx="158.138719086mm" cy="144.069854426mm" fill="none" r="1.29601421306mm" stroke="black" stroke-width="1" /><circle cx="69.9925247305mm" cy="62.9248776722mm" fill="none" r="1.33718715354mm" stroke="black" stroke-width="1" /><circle cx="107.627614677mm" cy="24.3230028971mm" fill="none" r="1.90444644606mm" stroke="black" stroke-width="1" /><circle cx="127.830767606mm" cy="20.0006284032mm" fill="none" r="2.30415665813mm" stroke="black" stroke-width="1" /><circle cx="76.6047813226mm" cy="130.89937132mm" fill="none" r="1.35811498716mm" stroke="black" stroke-width="1" /><circle cx="14.4842644783mm" cy="75.5373134453mm" fill="none" r="2.52105780363mm" stroke="black" stroke-width="1" /><circle cx="53.4397335131mm" cy="96.5545730171mm" fill="none" r="1.17347634779mm" stroke="black" stroke-width="1" /><circle cx="95.6933147567mm" cy="145.166462667mm" fill="none" r="3.30558372232mm" stroke="black" stroke-width="1" /><circle cx="164.532973087mm" cy="50.6143205825mm" fill="none" r="1.60559465275mm" stroke="black" stroke-width="1" /><circle cx="138.01201437mm" cy="65.8506713586mm" fill="none" r="1.45070058456mm" stroke="black" stroke-width="1" /><circle cx="12.5228732626mm" cy="107.818397299mm" fill="none" r="1.23105889518mm" stroke="black" stroke-width="1" /><circle cx="68.1303629742mm" cy="150.797278022mm" fill="none" r="1.10912879335mm" stroke="black" stroke-width="1" /><circle cx="139.359571152mm" cy="133.37458271mm" fill="none" r="2.34905514115mm" stroke="black" stroke-width="1" /><circle cx="147.860424101mm" cy="34.4674095198mm" fill="none" r="4.34692691531mm" stroke="black" stroke-width="1" /><circle cx="105.764799989mm" cy="181.216972957mm" fill="none" r="1.19913661502mm" stroke="black" stroke-width="1" /><circle cx="99.147723593mm" cy="151.401264403mm" fill="none" r="1.37715346793mm" stroke="black" stroke-width="1" /><circle cx="148.621514073mm" cy="144.397544404mm" fill="none" r="5.55250953423mm" stroke="black" stroke-width="1" /><circle cx="112.70971673mm" cy="140.184313628mm" fill="none" r="1.63662366927mm" stroke="black" stroke-width="1" /><circle cx="45.4335526427mm" cy="150.971712699mm" fill="none" r="1.04607895486mm" stroke="black" stroke-width="1" /><circle cx="30.591720983mm" cy="44.379556974mm" fill="none" r="3.31266043459mm" stroke="black" stroke-width="1" /><circle cx="80.7193931172mm" cy="154.878379091mm" fill="none" r="2.36202130089mm" stroke="black" stroke-width="1" /><circle cx="146.94737921mm" cy="75.858210496mm" fill="none" r="1.8841767341mm" stroke="black" stroke-width="1" /><circle cx="174.472914682mm" cy="77.8690807549mm" fill="none" r="1.16726808282mm" stroke="black" stroke-width="1" /><circle cx="164.72246957mm" cy="144.198017696mm" fill="none" r="3.12137879432mm" stroke="black" stroke-width="1" /><circle cx="124.928075874mm" cy="63.5069380946mm" fill="none" r="2.85981379092mm" stroke="black" stroke-width="1" /><circle cx="64.9856568407mm" cy="174.265577137mm" fill="none" r="3.06636361015mm" stroke="black" stroke-width="1" /><circle cx="10.5900147005mm" cy="83.3919670888mm" fill="none" r="1.23053442674mm" stroke="black" stroke-width="1" /><circle cx="98.0689967061mm" cy="10.1813513552mm" fill="none" r="1.97355001078mm" stroke="black" stroke-width="1" /><circle cx="95.2495640868mm" cy="107.159971858mm" fill="none" r="1.251457596mm" stroke="black" stroke-width="1" /><circle cx="93.8211683662mm" cy="124.944331629mm" fill="none" r="3.10101521183mm" stroke="black" stroke-width="1" /><circle cx="151.673116671mm" cy="152.602840181mm" fill="none" r="1.02493594425mm" stroke="black" stroke-width="1" /><circle cx="52.0710339199mm" cy="43.7159555066mm" fill="none" r="1.64221325596mm" stroke="black" stroke-width="1" /><circle cx="22.2100604407mm" cy="125.081060476mm" fill="none" r="2.43713268318mm" stroke="black" stroke-width="1" /><circle cx="119.556251198mm" cy="44.2847935811mm" fill="none" r="2.82372458185mm" stroke="black" stroke-width="1" /><circle cx="126.677315623mm" cy="84.6729708843mm" fill="none" r="2.14579194474mm" stroke="black" stroke-width="1" /><circle cx="181.096860905mm" cy="96.4849973048mm" fill="none" r="2.44202855401mm" stroke="black" stroke-width="1" /><circle cx="61.2862503476mm" cy="162.485918127mm" fill="none" r="1.95230608037mm" stroke="black" stroke-width="1" /><circle cx="81.3072884373mm" cy="25.8597085996mm" fill="none" r="1.38709876787mm" stroke="black" stroke-width="1" /><circle cx="72.8659283378mm" cy="178.432913638mm" fill="none" r="1.41353420574mm" stroke="black" stroke-width="1" /><circle cx="146.296154235mm" cy="82.0925845802mm" fill="none" r="1.18864236702mm" stroke="black" stroke-width="1" /><circle cx="96.8918514445mm" cy="85.8202035977mm" fill="none" r="2.13493014124mm" stroke="black" stroke-width="1" /><circle cx="17.9666935323mm" cy="63.0337776063mm" fill="none" r="1.04522067404mm" stroke="black" stroke-width="1" /><circle cx="28.3896118291mm" cy="57.1282519485mm" fill="none" r="1.45797707337mm" stroke="black" stroke-width="1" /><circle cx="12.0244208637mm" cy="93.5135906801mm" fill="none" r="1.46990832204mm" stroke="black" stroke-width="1" /><circle cx="94.273392099mm" cy="163.975111563mm" fill="none" r="1.10288385272mm" stroke="black" stroke-width="1" /><circle cx="37.9929726341mm" cy="154.617535191mm" fill="none" r="4.1468981691mm" stroke="black" stroke-width="1" /><circle cx="181.209410078mm" cy="103.959867106mm" fill="none" r="1.77184408081mm" stroke="black" stroke-width="1" /><circle cx="24.6753297203mm" cy="50.9249472712mm" fill="none" r="2.62360671188mm" stroke="black" stroke-width="1" /><circle cx="93.885249575mm" cy="32.042661228mm" fill="none" r="1.31602711998mm" stroke="black" stroke-width="1" /><circle cx="81.8891217615mm" cy="127.346168302mm" fill="none" r="1.61783159008mm" stroke="black" stroke-width="1" /><circle cx="48.8120779357mm" cy="97.0893418143mm" fill="none" r="1.09739556271mm" stroke="black" stroke-width="1" /><circle cx="140.960161939mm" cy="72.2230493773mm" fill="none" r="1.82807621125mm" stroke="black" stroke-width="1" /><circle cx="92.4864213935mm" cy="13.4628604664mm" fill="none" r="1.1028176207mm" stroke="black" stroke-width="1" /><circle cx="50.7434963243mm" cy="62.1702936121mm" fill="none" r="1.21403428215mm" stroke="black" stroke-width="1" /><circle cx="55.4984903592mm" cy="125.220753113mm" fill="none" r="1.40511767053mm" stroke="black" stroke-width="1" /><circle cx="124.035237524mm" cy="54.8074858509mm" fill="none" r="2.0990636522mm" stroke="black" stroke-width="1" /><circle cx="45.037955512mm" cy="64.0104917179mm" fill="none" r="1.99687519451mm" stroke="black" stroke-width="1" /><circle cx="175.250986013mm" cy="73.180492146mm" fill="none" r="1.0144030692mm" stroke="black" stroke-width="1" /><circle cx="115.867422381mm" cy="15.6042821265mm" fill="none" r="1.44780455867mm" stroke="black" stroke-width="1" /><circle cx="95.5071330581mm" cy="93.2299980945mm" fill="none" r="3.30271016467mm" stroke="black" stroke-width="1" /><circle cx="61.3421644939mm" cy="124.619123491mm" fill="none" r="1.3957420145mm" stroke="black" stroke-width="1" /><circle cx="73.3332144985mm" cy="38.9393575039mm" fill="none" r="1.0026057643mm" stroke="black" stroke-width="1" /><circle cx="159.368745546mm" cy="149.463101281mm" fill="none" r="1.35019933585mm" stroke="black" stroke-width="1" /><circle cx="108.443848051mm" cy="14.6331856373mm" fill="none" r="1.65238652151mm" stroke="black" stroke-width="1" /><circle cx="34.6520792488mm" cy="38.7321231227mm" fill="none" r="1.42599883999mm" stroke="black" stroke-width="1" /><circle cx="153.649501701mm" cy="74.104237406mm" fill="none" r="1.34621217566mm" stroke="black" stroke-width="1" /><circle cx="26.7360849637mm" cy="145.596727979mm" fill="none" r="2.63170457776mm" stroke="black" stroke-width="1" /><circle cx="19.4736148974mm" cy="78.7115039473mm" fill="none" r="1.2158804858mm" stroke="black" stroke-width="1" /><circle cx="139.186402583mm" cy="97.3579741801mm" fill="none" r="1.29737949957mm" stroke="black" stroke-width="1" /><circle cx="50.8069819222mm" cy="52.4470339229mm" fill="none" r="1.56203264351mm" stroke="black" stroke-width="1" /><circle cx="53.11434281mm" cy="36.8114090724mm" fill="none" r="2.44732415824mm" stroke="black" stroke-width="1" /><circle cx="45.7593583247mm" cy="43.5096737152mm" fill="none" r="1.41355990882mm" stroke="black" stroke-width="1" /><circle cx="81.1603926599mm" cy="165.969472142mm" fill="none" r="2.42286299956mm" stroke="black" stroke-width="1" /><circle cx="77.4531108917mm" cy="38.7710241476mm" fill="none" r="1.06525023764mm" stroke="black" stroke-width="1" /><circle cx="90.6345785166mm" cy="168.963133667mm" fill="none" r="1.74553963458mm" stroke="black" stroke-width="1" /><circle cx="157.667772603mm" cy="154.359553113mm" fill="none" r="1.77774018665mm" stroke="black" stroke-width="1" /><circle cx="15.1137130428mm" cy="123.910244506mm" fill="none" r="1.02568493462mm" stroke="black" stroke-width="1" /><circle cx="112.753636515mm" cy="19.9062305156mm" fill="none" r="1.11792661987mm" stroke="black" stroke-width="1" /><circle cx="95.7328376984mm" cy="25.0890958035mm" fill="none" r="1.280742892mm" stroke="black" stroke-width="1" /><circle cx="123.122948742mm" cy="15.5829737305mm" fill="none" r="1.56682434184mm" stroke="black" stroke-width="1" /><circle cx="65.815256058mm" cy="16.7743611144mm" fill="none" r="2.14330709376mm" stroke="black" stroke-width="1" /><circle cx="74.9549319851mm" cy="167.404478196mm" fill="none" r="1.37541953248mm" stroke="black" stroke-width="1" /><circle cx="168.667961427mm" cy="74.2629251717mm" fill="none" r="2.45937867876mm" stroke="black" stroke-width="1" /><circle cx="87.9045874751mm" cy="33.2771232654mm" fill="none" r="1.08558112814mm" stroke="black" stroke-width="1" /><circle cx="134.31391808mm" cy="18.958177927mm" fill="none" r="1.40322491419mm" stroke="black" stroke-width="1" /><circle cx="102.758404119mm" cy="82.1811417862mm" fill="none" r="2.09869348028mm" stroke="black" stroke-width="1" /><circle cx="149.00713073mm" cy="104.819395268mm" fill="none" r="1.00355940145mm" stroke="black" stroke-width="1" /><circle cx="141.377280626mm" cy="166.790216488mm" fill="none" r="1.16674110215mm" stroke="black" stroke-width="1" /><circle cx="92.7639812244mm" cy="118.393881868mm" fill="none" r="1.23245662593mm" stroke="black" stroke-width="1" /><circle cx="98.8102483198mm" cy="112.782392459mm" fill="none" r="1.02383473635mm" stroke="black" stroke-width="1" /><circle cx="118.404634217mm" cy="94.3009287286mm" fill="none" r="1.36264563629mm" stroke="black" stroke-width="1" /><circle cx="106.20235074mm" cy="136.831867296mm" fill="none" r="2.3951360935mm" stroke="black" stroke-width="1" /><circle cx="76.6632721948mm" cy="75.5272789984mm" fill="none" r="1.30673237806mm" stroke="black" stroke-width="1" /><circle cx="98.8673982398mm" cy="101.397359777mm" fill="none" r="2.56840093429mm" stroke="black" stroke-width="1" /><circle cx="132.855288545mm" cy="34.1542280069mm" fill="none" r="1.82578565399mm" stroke="black" stroke-width="1" /><circle cx="77.6190142906mm" cy="81.7146659096mm" fill="none" r="1.96617676909mm" stroke="black" stroke-width="1" /><circle cx="153.985270753mm" cy="159.248775274mm" fill="none" r="1.19462042421mm" stroke="black" stroke-width="1" /><circle cx="9.46561209044mm" cy="88.1375264814mm" fill="none" r="1.05777774129mm" stroke="black" stroke-width="1" /><circle cx="56.8784362754mm" cy="59.4802958049mm" fill="none" r="1.98846893875mm" stroke="black" stroke-width="1" /><circle cx="22.3231734632mm" cy="98.3895551502mm" fill="none" r="1.61869708788mm" stroke="black" stroke-width="1" /><circle cx="122.564336883mm" cy="91.3293527199mm" fill="none" r="1.01712935366mm" stroke="black" stroke-width="1" /><circle cx="77.9362137698mm" cy="137.593407133mm" fill="none" r="1.44225976847mm" stroke="black" stroke-width="1" /><circle cx="162.921896038mm" cy="119.137420383mm" fill="none" r="2.16370671366mm" stroke="black" stroke-width="1" /><circle cx="146.382884036mm" cy="133.329287954mm" fill="none" r="2.20098694849mm" stroke="black" stroke-width="1" /><circle cx="38.1430903263mm" cy="43.7572860237mm" fill="none" r="1.10222531032mm" stroke="black" stroke-width="1" /><circle cx="138.509862211mm" cy="34.6050236668mm" fill="none" r="1.29540408983mm" stroke="black" stroke-width="1" /><circle cx="81.2574879674mm" cy="133.09128055mm" fill="none" r="1.13594420118mm" stroke="black" stroke-width="1" /><circle cx="92.1536058146mm" cy="159.960021567mm" fill="none" r="1.33869045311mm" stroke="black" stroke-width="1" /><circle cx="51.9120075818mm" cy="91.2055306633mm" fill="none" r="2.25193074123mm" stroke="black" stroke-width="1" /><circle cx="16.70367968mm" cy="67.1898173998mm" fill="none" r="1.24301941457mm" stroke="black" stroke-width="1" /><circle cx="89.2467579559mm" cy="90.0013990444mm" fill="none" r="1.50273168292mm" stroke="black" stroke-width="1" /><circle cx="127.443454533mm" cy="172.643347558mm" fill="none" r="1.65035868529mm" stroke="black" stroke-width="1" /><circle cx="14.0678768449mm" cy="117.633033368mm" fill="none" r="1.55219203258mm" stroke="black" stroke-width="1" /><circle cx="148.579295763mm" cy="125.357622373mm" fill="none" r="2.23811647882mm" stroke="black" stroke-width="1" /><circle cx="143.520461436mm" cy="112.263356474mm" fill="none" r="1.08339011138mm" stroke="black" stroke-width="1" /><circle cx="133.750277545mm" cy="137.542282402mm" fill="none" r="1.56006904632mm" stroke="black" stroke-width="1" /><circle cx="161.421076217mm" cy="39.4926797157mm" fill="none" r="1.04521478474mm" stroke="black" stroke-width="1" /><circle cx="18.8339390363mm" cy="131.988663232mm" fill="none" r="1.55060623059mm" stroke="black" stroke-width="1" /><circle cx="172.150425212mm" cy="136.029422817mm" fill="none" r="1.18329292729mm" stroke="black" stroke-width="1" /><circle cx="172.016457011mm" cy="55.6497052247mm" fill="none" r="1.36282348688mm" stroke="black" stroke-width="1" /><circle cx="90.1662708845mm" cy="132.606923489mm" fill="none" r="1.01535752415mm" stroke="black" stroke-width="1" /><circle cx="36.4989358235mm" cy="33.4367348281mm" fill="none" r="1.64412039861mm" stroke="black" stroke-width="1" /><circle cx="63.3265347728mm" cy="22.1668774258mm" fill="none" r="1.47761687611mm" stroke="black" stroke-width="1" /><circle cx="100.150504821mm" cy="128.377852527mm" fill="none" r="2.056029895mm" stroke="black" stroke-width="1" /><circle cx="15.5000438331mm" cy="83.5013734223mm" fill="none" r="1.00613950573mm" stroke="black" stroke-width="1" /><circle cx="28.2025459358mm" cy="96.3501674718mm" fill="none" r="1.13851317298mm" stroke="black" stroke-width="1" /><circle cx="144.105828875mm" cy="121.772483624mm" fill="none" r="1.22755933735mm" stroke="black" stroke-width="1" /><circle cx="112.434946998mm" cy="78.1462189224mm" fill="none" r="1.49538865582mm" stroke="black" stroke-width="1" /><circle cx="111.778704146mm" cy="146.017129787mm" fill="none" r="1.27019874805mm" stroke="black" stroke-width="1" /><circle cx="126.798842851mm" cy="70.6681760547mm" fill="none" r="1.12772200899mm" stroke="black" stroke-width="1" /><circle cx="100.703019818mm" cy="181.126665546mm" fill="none" r="1.26192002109mm" stroke="black" stroke-width="1" /><circle cx="57.6081617975mm" cy="94.3827914351mm" fill="none" r="1.07445541765mm" stroke="black" stroke-width="1" /><circle cx="46.7205776446mm" cy="28.9351207139mm" fill="none" r="1.04116211134mm" stroke="black" stroke-width="1" /><circle cx="120.118531716mm" cy="67.9549251635mm" fill="none" r="1.10381747689mm" stroke="black" stroke-width="1" /><circle cx="141.332489268mm" cy="86.8534664422mm" fill="none" r="1.36062404542mm" stroke="black" stroke-width="1" /><circle cx="92.4221895388mm" cy="18.8498382379mm" fill="none" r="1.02816917517mm" stroke="black" stroke-width="1" /><circle cx="83.9314666766mm" cy="147.136214622mm" fill="none" r="1.42484846079mm" stroke="black" stroke-width="1" /><circle cx="146.799663664mm" cy="99.7921240875mm" fill="none" r="1.81642390664mm" stroke="black" stroke-width="1" /><circle cx="150.112429166mm" cy="56.2471735439mm" fill="none" r="1.33892140518mm" stroke="black" stroke-width="1" /><circle cx="128.650089795mm" cy="160.800669302mm" fill="none" r="1.16609524343mm" stroke="black" stroke-width="1" /><circle cx="126.867645499mm" cy="140.47563896mm" fill="none" r="1.05858621291mm" stroke="black" stroke-width="1" /><circle cx="22.1660345868mm" cy="141.038586504mm" fill="none" r="1.04329108876mm" stroke="black" stroke-width="1" /><circle cx="99.5754828221mm" cy="158.443650899mm" fill="none" r="1.22421693114mm" stroke="black" stroke-width="1" /><circle cx="160.516053858mm" cy="109.850127229mm" fill="none" r="2.2179049895mm" stroke="black" stroke-width="1" /><circle cx="79.478534854mm" cy="180.222908383mm" fill="none" r="2.01229739411mm" stroke="black" stroke-width="1" /><circle cx="156.737451397mm" cy="37.290185009mm" fill="none" r="2.10047073493mm" stroke="black" stroke-width="1" /><circle cx="180.259552772mm" cy="79.8479623373mm" fill="none" r="2.18894530025mm" stroke="black" stroke-width="1" /><circle cx="127.184168342mm" cy="94.2366650046mm" fill="none" r="2.07595877068mm" stroke="black" stroke-width="1" /><circle cx="73.9760931387mm" cy="153.730042368mm" fill="none" r="2.02000199218mm" stroke="black" stroke-width="1" /><circle cx="44.2780466323mm" cy="81.4709498121mm" fill="none" r="2.07635515271mm" stroke="black" stroke-width="1" /><circle cx="132.498819445mm" cy="81.6333627864mm" fill="none" r="2.15969750489mm" stroke="black" stroke-width="1" /><circle cx="46.4431620551mm" cy="156.924669924mm" fill="none" r="2.06042674855mm" stroke="black" stroke-width="1" /><circle cx="19.4641603408mm" cy="107.126956779mm" fill="none" r="2.01510072706mm" stroke="black" stroke-width="1" /><circle cx="30.4463092559mm" cy="151.402297821mm" fill="none" r="2.02290791953mm" stroke="black" stroke-width="1" /><circle cx="139.298278173mm" cy="140.236723322mm" fill="none" r="2.23611016535mm" stroke="black" stroke-width="1" /><circle cx="72.541168249mm" cy="172.604049204mm" fill="none" r="2.13124776789mm" stroke="black" stroke-width="1" /><circle cx="133.24062239mm" cy="172.992947849mm" fill="none" r="2.03050357542mm" stroke="black" stroke-width="1" /></svg>